<svg id="visual" viewBox="0 0 3840 2160" width="3840" height="2160" xmlns="http://www.w3.org/2000/svg" xmlns:xlink="http://www.w3.org/1999/xlink" version="1.1"><path d="M0 1786L64 1799.7C128 1813.3 256 1840.7 384 1848.2C512 1855.7 640 1843.3 768 1829.5C896 1815.7 1024 1800.3 1152 1796.5C1280 1792.7 1408 1800.3 1536 1793C1664 1785.7 1792 1763.3 1920 1768.3C2048 1773.3 2176 1805.7 2304 1831.3C2432 1857 2560 1876 2688 1865C2816 1854 2944 1813 3072 1787.5C3200 1762 3328 1752 3456 1750.2C3584 1748.3 3712 1754.7 3776 1757.8L3840 1761L3840 2161L3776 2161C3712 2161 3584 2161 3456 2161C3328 2161 3200 2161 3072 2161C2944 2161 2816 2161 2688 2161C2560 2161 2432 2161 2304 2161C2176 2161 2048 2161 1920 2161C1792 2161 1664 2161 1536 2161C1408 2161 1280 2161 1152 2161C1024 2161 896 2161 768 2161C640 2161 512 2161 384 2161C256 2161 128 2161 64 2161L0 2161Z" fill="#fa7268"></path><path d="M0 1851L64 1858.3C128 1865.7 256 1880.3 384 1900.2C512 1920 640 1945 768 1944.5C896 1944 1024 1918 1152 1918.2C1280 1918.3 1408 1944.7 1536 1938.2C1664 1931.7 1792 1892.3 1920 1878.8C2048 1865.3 2176 1877.7 2304 1887C2432 1896.3 2560 1902.7 2688 1915.8C2816 1929 2944 1949 3072 1956.8C3200 1964.7 3328 1960.3 3456 1943.5C3584 1926.7 3712 1897.3 3776 1882.7L3840 1868L3840 2161L3776 2161C3712 2161 3584 2161 3456 2161C3328 2161 3200 2161 3072 2161C2944 2161 2816 2161 2688 2161C2560 2161 2432 2161 2304 2161C2176 2161 2048 2161 1920 2161C1792 2161 1664 2161 1536 2161C1408 2161 1280 2161 1152 2161C1024 2161 896 2161 768 2161C640 2161 512 2161 384 2161C256 2161 128 2161 64 2161L0 2161Z" fill="#e34c67"></path><path d="M0 1999L64 1999.5C128 2000 256 2001 384 2002.2C512 2003.3 640 2004.7 768 2008.3C896 2012 1024 2018 1152 2021.3C1280 2024.7 1408 2025.3 1536 2012.8C1664 2000.3 1792 1974.7 1920 1963.5C2048 1952.3 2176 1955.7 2304 1962C2432 1968.3 2560 1977.7 2688 1982.7C2816 1987.7 2944 1988.3 3072 1986.8C3200 1985.3 3328 1981.7 3456 1988.2C3584 1994.7 3712 2011.3 3776 2019.7L3840 2028L3840 2161L3776 2161C3712 2161 3584 2161 3456 2161C3328 2161 3200 2161 3072 2161C2944 2161 2816 2161 2688 2161C2560 2161 2432 2161 2304 2161C2176 2161 2048 2161 1920 2161C1792 2161 1664 2161 1536 2161C1408 2161 1280 2161 1152 2161C1024 2161 896 2161 768 2161C640 2161 512 2161 384 2161C256 2161 128 2161 64 2161L0 2161Z" fill="#c62368"></path></svg>